<?xml version="1.0" encoding="UTF-8"?>
<!DOCTYPE svg PUBLIC "-//W3C//DTD SVG 1.1//EN" "http://www.w3.org/Graphics/SVG/1.1/DTD/svg11.dtd">
<!-- Creator: CorelDRAW 2018 (64-Bit) -->
<svg xmlns="http://www.w3.org/2000/svg" xml:space="preserve" width="447px" height="441px" version="1.1" style="shape-rendering:geometricPrecision; text-rendering:geometricPrecision; image-rendering:optimizeQuality; fill-rule:evenodd; clip-rule:evenodd"
viewBox="0 0 288.4 284.44"
 xmlns:xlink="http://www.w3.org/1999/xlink">
 <defs>
  <style type="text/css">
   <![CDATA[
    .fil0 {fill:#477B79}
   ]]>
  </style>
 </defs>
 <g id="Layer_x0020_1">
  <metadata id="CorelCorpID_0Corel-Layer"/>
  <path class="fil0" d="M159.3 40.03c10.4,11.81 17.48,26.2 20.14,40.77 8.81,48.41 -27.24,87.17 -66.45,94.18 -56.59,10.1 -95.38,-35.14 -96.41,-80.62 -5.83,-7.34 -10.39,-15.73 -13.37,-24.83 -5.3,20.34 -4.11,42.36 4.12,62.21 4.19,10.11 12.59,23.75 18.35,29.55l12.49 11.38c15.74,11.78 29.88,17.97 51.19,20.13 42.62,4.31 60.29,-15.98 73.26,-22.25l23.64 22.88c-2.82,6.78 -8.41,8.63 -0.76,17.18l38.18 38.05c19.98,20 39.89,48.27 58.41,29.76 13.24,-13.25 2.76,-26.1 -5.13,-33.71l-50.46 -49.68c-4.6,-4.47 -8.22,-8.27 -12.89,-12.57 -8.62,-7.94 -8.11,-2.5 -16.75,-1.08l-22.49 -22.14c6.97,-15.46 26.18,-31.56 22.47,-73.5 -2.76,-31.34 -20.19,-57.69 -44.3,-73.67 3.85,8.62 6.21,18.05 6.76,27.96z"/>
  <path class="fil0" d="M176.29 101.17c1.93,-29.74 -9.97,-22.98 -10.17,-15.05 -0.2,7.74 3.12,17.91 -4.79,31.77 -2.01,3.51 -6.34,6.73 -4.94,12.35 2.93,11.84 18.37,-5.48 19.9,-29.07z"/>
  <path class="fil0" d="M82.31 90.78c7.73,-14.3 7.77,-28.67 -0.01,-43.14 -0.97,-1.79 -1.6,-1.78 -3.17,-3.01 -19.3,-15.23 -7.46,-44.65 15.26,-44.63 22.7,-0.02 34.54,29.36 15.28,44.6 -1.54,1.23 -2.23,1.24 -3.18,3.02 -7.8,14.48 -7.76,28.87 -0.02,43.18 0.97,1.79 1.62,1.78 3.18,3.01 19.29,15.24 7.45,44.64 -15.26,44.62 -22.72,0.02 -34.56,-29.4 -15.26,-44.63 1.58,-1.24 2.2,-1.21 3.18,-3.02zm12.04 -82.42c9.17,0 16.59,7.42 16.59,16.59 0,9.16 -7.42,16.58 -16.59,16.58 -9.16,0 -16.58,-7.42 -16.58,-16.58 0,-9.17 7.42,-16.59 16.58,-16.59z"/>
 </g>
</svg>
