<svg
  width="331"
  height="305"
  viewBox="0 0 331 305"
  fill="#EFF5F5"
  xmlns="http://www.w3.org/2000/svg"
>
  <path
    d="M320.866 186.566C302.616 214.351 284.501 240.501 266.523 265.016C248.545 289.532 224.438 297.568 194.202 289.124C163.966 280.679 132.095 283.676 98.5904 298.113C65.0856 312.55 46.9712 301.109 44.2472 263.791C41.5232 226.472 33.2151 197.326 19.3229 176.351C5.43061 155.377 -0.970724 130.725 0.118864 102.395C1.20845 74.0662 14.6921 54.045 40.5698 42.3319C66.4475 30.6188 90.9633 19.723 114.117 9.64426C137.271 -0.434426 161.65 -2.6136 187.256 3.10674C212.861 8.82707 230.567 23.6727 240.373 47.6437C250.179 71.6146 270.609 93.815 301.662 114.245C332.716 134.675 339.117 158.782 320.866 186.566Z"
  />
</svg>